P3
4 4
255
224 139 118 224 139 118 224 139 118 225 140 119 
224 139 118 223 138 117 223 138 117 225 138 118 
223 137 114 222 136 113 222 136 113 223 137 114 
223 135 113 222 134 112 221 133 111 222 134 112 
